<svg viewBox="0 0 12 12" fill="none" xmlns="http://www.w3.org/2000/svg">
<path d="M6.78286 0.545869L6.8606 0.541382C7.20246 0.541382 7.48426 0.798742 7.5228 1.1303L7.52726 1.20805V5.87472H12.1939C12.5358 5.87472 12.8176 6.13205 12.8561 6.46365L12.8606 6.54138C12.8606 6.88325 12.6033 7.16505 12.2717 7.20358L12.1939 7.20805H7.52726V11.8747C7.52726 12.2166 7.26993 12.4984 6.93833 12.5369L6.8606 12.5414C6.51873 12.5414 6.23693 12.284 6.1984 11.9524L6.19393 11.8747V7.20805H1.52726C1.18537 7.20805 0.903589 6.95072 0.865082 6.61912L0.860596 6.54138C0.860596 6.19952 1.11796 5.91772 1.44952 5.87918L1.52726 5.87472H6.19393V1.20805C6.19393 0.866155 6.45126 0.584375 6.78286 0.545869L6.8606 0.541382L6.78286 0.545869Z" fill="#82C7FF"/>
</svg>
