<svg width="39" height="39" viewBox="0 0 39 39" fill="none" xmlns="http://www.w3.org/2000/svg">
<mask id="path-2-inside-1_1568_83038" fill="white">
<path d="M16.3759 22.0713L12.9043 18.1658C12.6291 17.8562 12.1551 17.8283 11.8455 18.1035C11.5359 18.3787 11.508 18.8527 11.7832 19.1623L15.7832 23.6623C16.0699 23.9849 16.569 23.9995 16.8741 23.6944L27.3741 13.1944C27.667 12.9015 27.667 12.4266 27.3741 12.1337C27.0812 11.8408 26.6063 11.8408 26.3134 12.1337L16.3759 22.0713Z"/>
</mask>
<path d="M16.3759 22.0713L12.9043 18.1658C12.6291 17.8562 12.1551 17.8283 11.8455 18.1035C11.5359 18.3787 11.508 18.8527 11.7832 19.1623L15.7832 23.6623C16.0699 23.9849 16.569 23.9995 16.8741 23.6944L27.3741 13.1944C27.667 12.9015 27.667 12.4266 27.3741 12.1337C27.0812 11.8408 26.6063 11.8408 26.3134 12.1337L16.3759 22.0713Z" fill="#82C7FF"/>
<path d="M16.3759 22.0713L14.8811 23.4L16.2902 24.9854L17.7901 23.4855L16.3759 22.0713ZM12.9043 18.1658L14.3991 16.8371L12.9043 18.1658ZM11.8455 18.1035L13.1742 19.5983L11.8455 18.1035ZM11.7832 19.1623L10.2884 20.4911H10.2884L11.7832 19.1623ZM15.7832 23.6623L14.2884 24.9911H14.2884L15.7832 23.6623ZM16.8741 23.6944L18.2883 25.1086L16.8741 23.6944ZM27.3741 13.1944L28.7883 14.6086L27.3741 13.1944ZM27.3741 12.1337L28.7883 10.7195L27.3741 12.1337ZM26.3134 12.1337L24.8992 10.7195H24.8992L26.3134 12.1337ZM17.8707 20.7426L14.3991 16.8371L11.4095 19.4945L14.8811 23.4L17.8707 20.7426ZM14.3991 16.8371C13.3901 15.7019 11.6519 15.5997 10.5168 16.6087L13.1742 19.5983C12.6582 20.057 11.8681 20.0105 11.4095 19.4945L14.3991 16.8371ZM10.5168 16.6087C9.3816 17.6177 9.27936 19.3559 10.2884 20.4911L13.278 17.8336C13.7367 18.3496 13.6902 19.1397 13.1742 19.5983L10.5168 16.6087ZM10.2884 20.4911L14.2884 24.9911L17.278 22.3336L13.278 17.8336L10.2884 20.4911ZM14.2884 24.9911C15.3396 26.1737 17.1695 26.2274 18.2883 25.1086L15.4599 22.2802C15.9684 21.7716 16.8002 21.7961 17.278 22.3336L14.2884 24.9911ZM18.2883 25.1086L28.7883 14.6086L25.9599 11.7802L15.4599 22.2802L18.2883 25.1086ZM28.7883 14.6086C29.8622 13.5347 29.8622 11.7935 28.7883 10.7195L25.9599 13.5479C25.4717 13.0598 25.4717 12.2683 25.9599 11.7802L28.7883 14.6086ZM28.7883 10.7195C27.7144 9.64558 25.9732 9.64558 24.8992 10.7195L27.7276 13.5479C27.2395 14.0361 26.448 14.0361 25.9599 13.5479L28.7883 10.7195ZM24.8992 10.7195L14.9617 20.6571L17.7901 23.4855L27.7276 13.5479L24.8992 10.7195Z" fill="#82C7FF" mask="url(#path-2-inside-1_1568_83038)"/>
</svg>
