<svg fill="none" height="24" viewBox="0 0 24 24" width="24" xmlns="http://www.w3.org/2000/svg"><path d="m19.6667 0c2.3932 0 4.3333 1.94011 4.3333 4.33333v4c0 .55228-.4477 1-1 1s-1-.44772-1-1v-4c0-1.28866-1.0447-2.33333-2.3333-2.33333h-4c-.5523 0-1-.44772-1-1s.4477-1 1-1zm-15.33337 0c-2.39324 0-4.33333 1.94009-4.33333 4.33333v4c0 .55228.44772 1 1 1s1-.44772 1-1v-4c0-1.28866 1.04467-2.33333 2.33333-2.33333h4c.55228 0 1-.44772 1-1s-.44772-1-1-1zm15.33337 24c2.3932 0 4.3333-1.9401 4.3333-4.3333v-4c0-.5523-.4477-1-1-1s-1 .4477-1 1v4c0 1.2886-1.0447 2.3333-2.3333 2.3333h-4c-.5523 0-1 .4477-1 1s.4477 1 1 1zm-19.6667-4.3333c0 2.3932 1.94009 4.3333 4.33333 4.3333h4c.55228 0 1-.4477 1-1s-.44772-1-1-1h-4c-1.28866 0-2.33333-1.0447-2.33333-2.3333v-4c0-.5523-.44772-1-1-1s-1 .4477-1 1zm12-3.6667c2.2092 0 4-1.7908 4-4s-1.7908-4-4-4-4 1.7908-4 4 1.7908 4 4 4zm0-2c-1.1045 0-2-.8955-2-2s.8955-2 2-2 2 .8955 2 2-.8955 2-2 2zm-6-6.66667c.73639 0 1.33333-.59694 1.33333-1.33333 0-.73637-.59694-1.33333-1.33333-1.33333-.73637 0-1.33333.59696-1.33333 1.33333 0 .73639.59696 1.33333 1.33333 1.33333z" fill="#174ae4"/></svg>