<svg width="39" height="39" viewBox="0 0 39 39" fill="none" xmlns="http://www.w3.org/2000/svg">
<path d="M18.5742 14.6908L18.7279 14.6865H24.9779C26.422 14.6865 27.6022 15.8169 27.6819 17.2411L27.6862 17.3948V18.6956C27.3159 18.3402 26.8954 18.0371 26.4362 17.7977V17.3948C26.4362 16.5894 25.7833 15.9365 24.9779 15.9365H18.7279C17.9627 15.9365 17.3352 16.5258 17.2744 17.2752L17.2695 17.3948V23.6448C17.2695 24.41 17.8588 25.0375 18.6083 25.0983L18.7279 25.1031H19.1292C19.3684 25.5623 19.6714 25.9829 20.0265 26.3531H18.7279C17.2837 26.3531 16.1035 25.2228 16.0238 23.7986L16.0195 23.6448V17.3948C16.0195 15.9507 17.1499 14.7705 18.5742 14.6908Z" fill="white"/>
<path d="M22.3377 11.5482L22.3816 11.6955L22.9587 13.8525H21.6645L21.1742 12.0191C20.9658 11.2411 20.1661 10.7794 19.3881 10.9879L13.3511 12.6055C12.6141 12.803 12.1609 13.5311 12.2925 14.2686L12.3199 14.3916L13.9375 20.4286C14.0976 21.0262 14.6066 21.4372 15.1866 21.5012L15.1867 22.7555C14.1023 22.6917 13.1275 21.9746 12.774 20.8995L12.7301 20.7522L11.1125 14.7151C10.7387 13.3201 11.5251 11.8876 12.8802 11.442L13.0276 11.3981L19.0646 9.78046C20.4596 9.40667 21.8921 10.1931 22.3377 11.5482Z" fill="white"/>
<path d="M28.5197 22.6038C28.5197 20.0725 26.4677 18.0205 23.9364 18.0205C21.405 18.0205 19.353 20.0725 19.353 22.6038C19.353 25.1352 21.405 27.1872 23.9364 27.1872C26.4677 27.1872 28.5197 25.1352 28.5197 22.6038ZM23.8614 19.6933L23.9364 19.6865L24.0113 19.6933C24.1814 19.7241 24.3154 19.8583 24.3463 20.0283L24.353 20.1032L24.3527 22.1865L26.4402 22.1872L26.515 22.1939C26.6851 22.2248 26.8193 22.3588 26.8501 22.5289L26.8569 22.6038L26.8501 22.6788C26.8193 22.8488 26.6851 22.9829 26.515 23.0138L26.4402 23.0205L24.3536 23.0198L24.3539 25.1068L24.3473 25.1817C24.3164 25.3518 24.1823 25.4858 24.0122 25.5167L23.9373 25.5234L23.8624 25.5167C23.6923 25.4858 23.5582 25.3518 23.5274 25.1817L23.5206 25.1068L23.5203 23.0198L21.4344 23.0205L21.3595 23.0138C21.1894 22.9829 21.0553 22.8488 21.0244 22.6788L21.0178 22.6038L21.0244 22.5289C21.0553 22.3588 21.1894 22.2248 21.3595 22.1939L21.4344 22.1872L23.5194 22.1865L23.5197 20.1032L23.5264 20.0283C23.5573 19.8583 23.6914 19.7241 23.8614 19.6933Z" fill="white"/>
</svg>
