<svg xmlns="http://www.w3.org/2000/svg" viewBox="0 0 16 16" enable-background="new 0 0 16 16">
  <path d="M3.054 9.467c-.034-.479-.054-.967-.054-1.467 0-.5.023-.987.06-1.465.022-.29-.203-.535-.494-.535h-1.483c-.501 0-.923.37-.997.865-.056.37-.086.749-.086 1.135s.03.765.086 1.135c.074.495.496.865.997.865h1.478c.29 0 .514-.243.493-.533zm3.039-5.467h3.814c.328 0 .576-.315.485-.631-.14-.486-.3-.932-.477-1.327-.323-.729-.699-1.282-1.047-1.61-.356-.333-.631-.431-.868-.432-.237.001-.512.099-.868.432-.348.328-.724.881-1.047 1.61-.176.395-.336.841-.476 1.327-.091.316.156.631.484.631zm6.415-.392c.052.227.251.392.484.392h.991c.414 0 .652-.477.403-.807-.746-.989-1.715-1.797-2.835-2.354l.191.391c.314.708.566 1.513.766 2.378zm-9.016 8.784c-.052-.227-.251-.392-.484-.392h-.99c-.414 0-.652.477-.403.807.746.989 1.715 1.797 2.835 2.354l-.191-.391c-.315-.708-.567-1.513-.767-2.378zm6.937-6.392h-4.86c-.26 0-.482.195-.504.454-.042.501-.066 1.017-.065 1.546 0 .532.027 1.047.071 1.548.023.257.242.452.5.452h4.86c.26 0 .482-.195.504-.454.042-.501.066-1.017.065-1.546 0-.532-.027-1.047-.071-1.548-.023-.257-.242-.452-.5-.452zm5.485.865c-.074-.495-.496-.865-.997-.865h-1.478c-.291 0-.514.243-.493.533.034.478.054.967.054 1.467 0 .5-.023.987-.06 1.465-.022.29.203.535.494.535h1.483c.501 0 .923-.37.997-.865.056-.37.086-.749.086-1.135s-.03-.765-.086-1.135zm-1.932 5.135h-.98c-.234 0-.433.165-.485.393-.073.319-.153.629-.243.927-.204.673-.451 1.284-.73 1.844 1.122-.556 2.094-1.366 2.841-2.357.25-.33.011-.807-.403-.807zm-4.075 0h-3.814c-.328 0-.576.315-.485.631.14.486.3.932.477 1.327.322.729.699 1.282 1.047 1.61.356.333.631.431.868.432.237-.001.512-.099.868-.432.348-.328.725-.882 1.047-1.61.176-.395.337-.841.477-1.327.09-.316-.157-.631-.485-.631zm-8.293-8.807c-.249.33-.01.807.404.807h.98c.234 0 .433-.165.485-.393.073-.318.153-.628.242-.927.204-.673.451-1.284.73-1.844-1.122.556-2.093 1.366-2.841 2.357z" fill="#fff"/>
  <path d="M0 0h16v16h-16z" fill="none"/>
</svg>