<svg width="10" height="10" viewBox="0 0 10 10" fill="none" xmlns="http://www.w3.org/2000/svg">
    <path d="M9.09063 0.294182L9.14925 0.34543C9.39323 0.584899 9.41407 0.965965 9.20932 1.22958L9.15805 1.2882L5.88916 4.61869L9.21966 7.88757C9.46364 8.12704 9.4845 8.50809 9.27972 8.77174L9.22846 8.83034C8.98899 9.07432 8.60794 9.09518 8.34429 8.89041L8.28569 8.83914L4.9552 5.57026L1.68631 8.90075C1.44684 9.14473 1.0658 9.16559 0.80215 8.96081L0.743544 8.90955C0.499562 8.67008 0.478703 8.28903 0.683481 8.02539L0.734743 7.96678L4.00363 4.63629L0.673137 1.36741C0.429135 1.12792 0.408291 0.746886 0.613088 0.483258L0.664336 0.424638C0.903805 0.180656 1.28487 0.159816 1.54849 0.364565L1.6071 0.415837L4.9376 3.68472L8.20648 0.354231C8.44597 0.11023 8.827 0.0893854 9.09063 0.294182L9.14925 0.34543L9.09063 0.294182Z" fill="#ececec"/>
</svg>
